<mxfile host="Electron" modified="2023-10-17T09:07:07.581Z" agent="Mozilla/5.0 (Windows NT 10.0; Win64; x64) AppleWebKit/537.36 (KHTML, like Gecko) draw.io/22.0.2 Chrome/114.0.5735.289 Electron/25.8.4 Safari/537.36" etag="Q9lKXRF_RECx_381oFBr" version="22.0.2" type="device">
  <diagram name="Page-1" id="2YBvvXClWsGukQMizWep">
    <mxGraphModel dx="1900" dy="621" grid="1" gridSize="10" guides="1" tooltips="1" connect="1" arrows="1" fold="1" page="1" pageScale="1" pageWidth="850" pageHeight="1100" math="0" shadow="0">
      <root>
        <mxCell id="0" />
        <mxCell id="1" parent="0" />
        <mxCell id="aM9ryv3xv72pqoxQDRHE-1" value="Home Page" style="shape=umlLifeline;perimeter=lifelinePerimeter;whiteSpace=wrap;html=1;container=0;dropTarget=0;collapsible=0;recursiveResize=0;outlineConnect=0;portConstraint=eastwest;newEdgeStyle={&quot;edgeStyle&quot;:&quot;elbowEdgeStyle&quot;,&quot;elbow&quot;:&quot;vertical&quot;,&quot;curved&quot;:0,&quot;rounded&quot;:0};fontSize=20;fillColor=#76608a;fontColor=#ffffff;strokeColor=#432D57;" parent="1" vertex="1">
          <mxGeometry x="40" y="40" width="100" height="760" as="geometry" />
        </mxCell>
        <mxCell id="WbID-xer1si53uDVizWF-18" value="" style="html=1;points=[[0,0,0,0,5],[0,1,0,0,-5],[1,0,0,0,5],[1,1,0,0,-5]];perimeter=orthogonalPerimeter;outlineConnect=0;targetShapes=umlLifeline;portConstraint=eastwest;newEdgeStyle={&quot;curved&quot;:0,&quot;rounded&quot;:0};fillColor=#f0a30a;fontColor=#000000;strokeColor=#BD7000;" parent="aM9ryv3xv72pqoxQDRHE-1" vertex="1">
          <mxGeometry x="45" y="160" width="10" height="120" as="geometry" />
        </mxCell>
        <mxCell id="aM9ryv3xv72pqoxQDRHE-5" value="User Database" style="shape=umlLifeline;perimeter=lifelinePerimeter;whiteSpace=wrap;html=1;container=0;dropTarget=0;collapsible=0;recursiveResize=0;outlineConnect=0;portConstraint=eastwest;newEdgeStyle={&quot;edgeStyle&quot;:&quot;elbowEdgeStyle&quot;,&quot;elbow&quot;:&quot;vertical&quot;,&quot;curved&quot;:0,&quot;rounded&quot;:0};fontSize=20;fillColor=#76608a;fontColor=#ffffff;strokeColor=#432D57;" parent="1" vertex="1">
          <mxGeometry x="220" y="40" width="100" height="760" as="geometry" />
        </mxCell>
        <mxCell id="WbID-xer1si53uDVizWF-14" value="" style="html=1;points=[[0,0,0,0,5],[0,1,0,0,-5],[1,0,0,0,5],[1,1,0,0,-5]];perimeter=orthogonalPerimeter;outlineConnect=0;targetShapes=umlLifeline;portConstraint=eastwest;newEdgeStyle={&quot;curved&quot;:0,&quot;rounded&quot;:0};fillColor=#f0a30a;fontColor=#000000;strokeColor=#BD7000;" parent="aM9ryv3xv72pqoxQDRHE-5" vertex="1">
          <mxGeometry x="45" y="60" width="10" height="80" as="geometry" />
        </mxCell>
        <mxCell id="WbID-xer1si53uDVizWF-3" value="Cart" style="shape=umlLifeline;whiteSpace=wrap;html=1;container=1;dropTarget=0;collapsible=0;recursiveResize=0;outlineConnect=0;portConstraint=eastwest;newEdgeStyle={&quot;curved&quot;:0,&quot;rounded&quot;:0};points=[[0,0,0,0,5],[0,1,0,0,-5],[1,0,0,0,5],[1,1,0,0,-5]];perimeter=rectanglePerimeter;targetShapes=umlLifeline;participant=label;fontSize=20;fillColor=#76608a;fontColor=#ffffff;strokeColor=#432D57;" parent="1" vertex="1">
          <mxGeometry x="360" y="40" width="100" height="770" as="geometry" />
        </mxCell>
        <mxCell id="WbID-xer1si53uDVizWF-23" value="" style="html=1;points=[[0,0,0,0,5],[0,1,0,0,-5],[1,0,0,0,5],[1,1,0,0,-5]];perimeter=orthogonalPerimeter;outlineConnect=0;targetShapes=umlLifeline;portConstraint=eastwest;newEdgeStyle={&quot;curved&quot;:0,&quot;rounded&quot;:0};fillColor=#f0a30a;fontColor=#000000;strokeColor=#BD7000;" parent="WbID-xer1si53uDVizWF-3" vertex="1">
          <mxGeometry x="45" y="250" width="10" height="80" as="geometry" />
        </mxCell>
        <mxCell id="yz9_nOMWpClxMJq3Lxjo-4" value="" style="shape=umlDestroy;whiteSpace=wrap;html=1;strokeWidth=3;targetShapes=umlLifeline;" parent="WbID-xer1si53uDVizWF-3" vertex="1">
          <mxGeometry x="35" y="740" width="30" height="30" as="geometry" />
        </mxCell>
        <mxCell id="WbID-xer1si53uDVizWF-10" value="Checkout &amp;amp; Purchase" style="shape=umlLifeline;perimeter=lifelinePerimeter;whiteSpace=wrap;html=1;container=1;dropTarget=0;collapsible=0;recursiveResize=0;outlineConnect=0;portConstraint=eastwest;newEdgeStyle={&quot;curved&quot;:0,&quot;rounded&quot;:0};fontSize=17;fillColor=#76608a;fontColor=#ffffff;strokeColor=#432D57;" parent="1" vertex="1">
          <mxGeometry x="510" y="40" width="100" height="760" as="geometry" />
        </mxCell>
        <mxCell id="WbID-xer1si53uDVizWF-26" value="" style="html=1;points=[[0,0,0,0,5],[0,1,0,0,-5],[1,0,0,0,5],[1,1,0,0,-5]];perimeter=orthogonalPerimeter;outlineConnect=0;targetShapes=umlLifeline;portConstraint=eastwest;newEdgeStyle={&quot;curved&quot;:0,&quot;rounded&quot;:0};fillColor=#f0a30a;fontColor=#000000;strokeColor=#BD7000;" parent="WbID-xer1si53uDVizWF-10" vertex="1">
          <mxGeometry x="45" y="260" width="10" height="150" as="geometry" />
        </mxCell>
        <mxCell id="WbID-xer1si53uDVizWF-12" value="" style="edgeStyle=elbowEdgeStyle;fontSize=12;html=1;endArrow=blockThin;endFill=1;rounded=0;" parent="1" target="aM9ryv3xv72pqoxQDRHE-5" edge="1">
          <mxGeometry width="160" relative="1" as="geometry">
            <mxPoint x="-30" y="120" as="sourcePoint" />
            <mxPoint x="200" y="120" as="targetPoint" />
            <Array as="points">
              <mxPoint y="120" />
            </Array>
          </mxGeometry>
        </mxCell>
        <mxCell id="WbID-xer1si53uDVizWF-15" value="Login detail" style="edgeLabel;html=1;align=center;verticalAlign=middle;resizable=0;points=[];" parent="WbID-xer1si53uDVizWF-12" vertex="1" connectable="0">
          <mxGeometry x="-0.419" y="2" relative="1" as="geometry">
            <mxPoint as="offset" />
          </mxGeometry>
        </mxCell>
        <mxCell id="WbID-xer1si53uDVizWF-16" value="system Access" style="html=1;verticalAlign=bottom;endArrow=open;dashed=1;endSize=8;curved=0;rounded=0;exitX=0;exitY=1;exitDx=0;exitDy=-5;exitPerimeter=0;" parent="1" source="WbID-xer1si53uDVizWF-14" edge="1">
          <mxGeometry relative="1" as="geometry">
            <mxPoint x="210" y="180" as="sourcePoint" />
            <mxPoint x="-35.5" y="175" as="targetPoint" />
          </mxGeometry>
        </mxCell>
        <mxCell id="WbID-xer1si53uDVizWF-17" value="" style="edgeStyle=elbowEdgeStyle;fontSize=12;html=1;endArrow=blockThin;endFill=1;rounded=0;entryX=0;entryY=0;entryDx=0;entryDy=5;entryPerimeter=0;" parent="1" target="WbID-xer1si53uDVizWF-18" edge="1">
          <mxGeometry width="160" relative="1" as="geometry">
            <mxPoint x="-30" y="205" as="sourcePoint" />
            <mxPoint x="70" y="210" as="targetPoint" />
            <Array as="points">
              <mxPoint x="20" y="205" />
            </Array>
          </mxGeometry>
        </mxCell>
        <mxCell id="WbID-xer1si53uDVizWF-19" value="browse for items" style="edgeLabel;html=1;align=center;verticalAlign=middle;resizable=0;points=[];" parent="WbID-xer1si53uDVizWF-17" vertex="1" connectable="0">
          <mxGeometry x="-0.3043" y="2" relative="1" as="geometry">
            <mxPoint x="20" y="-9" as="offset" />
          </mxGeometry>
        </mxCell>
        <mxCell id="WbID-xer1si53uDVizWF-21" value="choose item" style="html=1;verticalAlign=bottom;endArrow=block;curved=0;rounded=0;" parent="1" target="aM9ryv3xv72pqoxQDRHE-1" edge="1">
          <mxGeometry width="80" relative="1" as="geometry">
            <mxPoint x="-30" y="240" as="sourcePoint" />
            <mxPoint x="50" y="240" as="targetPoint" />
          </mxGeometry>
        </mxCell>
        <mxCell id="WbID-xer1si53uDVizWF-22" value="add to cart" style="html=1;verticalAlign=bottom;endArrow=block;curved=0;rounded=0;entryX=0;entryY=0;entryDx=0;entryDy=5;entryPerimeter=0;" parent="1" source="WbID-xer1si53uDVizWF-18" target="WbID-xer1si53uDVizWF-23" edge="1">
          <mxGeometry width="80" relative="1" as="geometry">
            <mxPoint x="100" y="295" as="sourcePoint" />
            <mxPoint x="80" y="280" as="targetPoint" />
          </mxGeometry>
        </mxCell>
        <mxCell id="WbID-xer1si53uDVizWF-24" value="item saved to cart" style="html=1;verticalAlign=bottom;endArrow=open;dashed=1;endSize=8;curved=0;rounded=0;" parent="1" edge="1">
          <mxGeometry relative="1" as="geometry">
            <mxPoint x="400" y="360" as="sourcePoint" />
            <mxPoint x="-35.5" y="360" as="targetPoint" />
          </mxGeometry>
        </mxCell>
        <mxCell id="WbID-xer1si53uDVizWF-25" value="got checkout" style="html=1;verticalAlign=bottom;endArrow=block;curved=0;rounded=0;" parent="1" target="WbID-xer1si53uDVizWF-10" edge="1">
          <mxGeometry x="0.0036" width="80" relative="1" as="geometry">
            <mxPoint x="420" y="310" as="sourcePoint" />
            <mxPoint x="500" y="310" as="targetPoint" />
            <mxPoint as="offset" />
          </mxGeometry>
        </mxCell>
        <mxCell id="WbID-xer1si53uDVizWF-27" value="purchase items?" style="html=1;verticalAlign=bottom;endArrow=open;dashed=1;endSize=8;curved=0;rounded=0;" parent="1" edge="1">
          <mxGeometry relative="1" as="geometry">
            <mxPoint x="560" y="410" as="sourcePoint" />
            <mxPoint x="-30" y="410" as="targetPoint" />
          </mxGeometry>
        </mxCell>
        <mxCell id="WbID-xer1si53uDVizWF-28" value="alternatives" style="shape=umlFrame;whiteSpace=wrap;html=1;pointerEvents=0;" parent="1" vertex="1">
          <mxGeometry x="-140" y="460" width="760" height="210" as="geometry" />
        </mxCell>
        <mxCell id="WbID-xer1si53uDVizWF-30" value="purchase" style="text;html=1;align=center;verticalAlign=middle;resizable=0;points=[];autosize=1;strokeColor=none;fillColor=none;" parent="1" vertex="1">
          <mxGeometry x="-135" y="488" width="70" height="30" as="geometry" />
        </mxCell>
        <mxCell id="WbID-xer1si53uDVizWF-33" value="yes" style="html=1;verticalAlign=bottom;endArrow=open;dashed=1;endSize=8;curved=0;rounded=0;" parent="1" target="WbID-xer1si53uDVizWF-10" edge="1">
          <mxGeometry relative="1" as="geometry">
            <mxPoint x="-30" y="500" as="sourcePoint" />
            <mxPoint x="10" y="530" as="targetPoint" />
            <Array as="points">
              <mxPoint x="20" y="500" />
            </Array>
          </mxGeometry>
        </mxCell>
        <mxCell id="WbID-xer1si53uDVizWF-36" value="" style="html=1;points=[[0,0,0,0,5],[0,1,0,0,-5],[1,0,0,0,5],[1,1,0,0,-5]];perimeter=orthogonalPerimeter;outlineConnect=0;targetShapes=umlLifeline;portConstraint=eastwest;newEdgeStyle={&quot;curved&quot;:0,&quot;rounded&quot;:0};fillColor=#f0a30a;fontColor=#000000;strokeColor=#BD7000;" parent="1" vertex="1">
          <mxGeometry x="555" y="480" width="10" height="110" as="geometry" />
        </mxCell>
        <mxCell id="WbID-xer1si53uDVizWF-38" value="add product to user database" style="html=1;verticalAlign=bottom;endArrow=open;dashed=1;endSize=8;curved=0;rounded=0;" parent="1" edge="1" target="aM9ryv3xv72pqoxQDRHE-5">
          <mxGeometry relative="1" as="geometry">
            <mxPoint x="555" y="534.17" as="sourcePoint" />
            <mxPoint x="280" y="534" as="targetPoint" />
          </mxGeometry>
        </mxCell>
        <mxCell id="WbID-xer1si53uDVizWF-39" value="" style="endArrow=none;dashed=1;html=1;dashPattern=1 3;strokeWidth=2;rounded=0;entryX=1.003;entryY=0.578;entryDx=0;entryDy=0;entryPerimeter=0;exitX=0;exitY=0.557;exitDx=0;exitDy=0;exitPerimeter=0;" parent="1" source="WbID-xer1si53uDVizWF-28" target="WbID-xer1si53uDVizWF-28" edge="1">
          <mxGeometry width="50" height="50" relative="1" as="geometry">
            <mxPoint x="-10" y="590" as="sourcePoint" />
            <mxPoint x="40" y="540" as="targetPoint" />
          </mxGeometry>
        </mxCell>
        <mxCell id="WbID-xer1si53uDVizWF-40" value="else" style="text;html=1;align=center;verticalAlign=middle;resizable=0;points=[];autosize=1;strokeColor=none;fillColor=none;" parent="1" vertex="1">
          <mxGeometry x="-135" y="568" width="50" height="30" as="geometry" />
        </mxCell>
        <mxCell id="WbID-xer1si53uDVizWF-41" value="no" style="html=1;verticalAlign=bottom;endArrow=open;dashed=1;endSize=8;curved=0;rounded=0;exitX=1;exitY=1;exitDx=0;exitDy=-5;exitPerimeter=0;" parent="1" edge="1">
          <mxGeometry relative="1" as="geometry">
            <mxPoint x="-24.75" y="610" as="sourcePoint" />
            <mxPoint x="564.75" y="610" as="targetPoint" />
          </mxGeometry>
        </mxCell>
        <mxCell id="WbID-xer1si53uDVizWF-42" value="" style="html=1;points=[[0,0,0,0,5],[0,1,0,0,-5],[1,0,0,0,5],[1,1,0,0,-5]];perimeter=orthogonalPerimeter;outlineConnect=0;targetShapes=umlLifeline;portConstraint=eastwest;newEdgeStyle={&quot;curved&quot;:0,&quot;rounded&quot;:0};fillColor=#f0a30a;fontColor=#000000;strokeColor=#BD7000;" parent="1" vertex="1">
          <mxGeometry x="555" y="600" width="10" height="100" as="geometry" />
        </mxCell>
        <mxCell id="WbID-xer1si53uDVizWF-43" value="item saved on cart" style="html=1;verticalAlign=bottom;endArrow=open;dashed=1;endSize=8;curved=0;rounded=0;entryX=1;entryY=0;entryDx=0;entryDy=5;entryPerimeter=0;" parent="1" edge="1">
          <mxGeometry relative="1" as="geometry">
            <mxPoint x="559.5" y="633" as="sourcePoint" />
            <mxPoint x="415" y="633" as="targetPoint" />
          </mxGeometry>
        </mxCell>
        <mxCell id="WbID-xer1si53uDVizWF-44" value="" style="html=1;points=[[0,0,0,0,5],[0,1,0,0,-5],[1,0,0,0,5],[1,1,0,0,-5]];perimeter=orthogonalPerimeter;outlineConnect=0;targetShapes=umlLifeline;portConstraint=eastwest;newEdgeStyle={&quot;curved&quot;:0,&quot;rounded&quot;:0};fillColor=#f0a30a;fontColor=#000000;strokeColor=#BD7000;" parent="1" vertex="1">
          <mxGeometry x="405" y="620" width="10" height="80" as="geometry" />
        </mxCell>
        <mxCell id="WbID-xer1si53uDVizWF-46" value="return" style="html=1;verticalAlign=bottom;endArrow=open;dashed=1;endSize=8;curved=0;rounded=0;" parent="1" edge="1" target="WEF_ZwdhUINKWZ9d70AN-5">
          <mxGeometry relative="1" as="geometry">
            <mxPoint x="550" y="700" as="sourcePoint" />
            <mxPoint x="-20" y="700" as="targetPoint" />
          </mxGeometry>
        </mxCell>
        <mxCell id="WbID-xer1si53uDVizWF-47" value="payment and delivery details" style="edgeLabel;html=1;align=center;verticalAlign=middle;resizable=0;points=[];" parent="WbID-xer1si53uDVizWF-46" vertex="1" connectable="0">
          <mxGeometry x="0.0054" y="-3" relative="1" as="geometry">
            <mxPoint y="12" as="offset" />
          </mxGeometry>
        </mxCell>
        <mxCell id="WbID-xer1si53uDVizWF-48" value="" style="html=1;verticalAlign=bottom;endArrow=open;dashed=1;endSize=8;curved=0;rounded=0;" parent="1" target="WbID-xer1si53uDVizWF-23" edge="1">
          <mxGeometry relative="1" as="geometry">
            <mxPoint x="550" y="360" as="sourcePoint" />
            <mxPoint x="470" y="360" as="targetPoint" />
          </mxGeometry>
        </mxCell>
        <mxCell id="WbID-xer1si53uDVizWF-49" value="list of item select" style="text;html=1;align=center;verticalAlign=middle;resizable=0;points=[];autosize=1;strokeColor=none;fillColor=none;" parent="1" vertex="1">
          <mxGeometry x="425" y="338" width="110" height="30" as="geometry" />
        </mxCell>
        <mxCell id="yz9_nOMWpClxMJq3Lxjo-2" value="" style="shape=umlDestroy;whiteSpace=wrap;html=1;strokeWidth=3;targetShapes=umlLifeline;" parent="1" vertex="1">
          <mxGeometry x="75" y="780" width="30" height="30" as="geometry" />
        </mxCell>
        <mxCell id="yz9_nOMWpClxMJq3Lxjo-1" value="" style="shape=umlDestroy;whiteSpace=wrap;html=1;strokeWidth=3;targetShapes=umlLifeline;" parent="1" vertex="1">
          <mxGeometry x="-50" y="780" width="30" height="30" as="geometry" />
        </mxCell>
        <mxCell id="yz9_nOMWpClxMJq3Lxjo-3" value="" style="shape=umlDestroy;whiteSpace=wrap;html=1;strokeWidth=3;targetShapes=umlLifeline;" parent="1" vertex="1">
          <mxGeometry x="255" y="780" width="30" height="30" as="geometry" />
        </mxCell>
        <mxCell id="yz9_nOMWpClxMJq3Lxjo-5" value="" style="shape=umlDestroy;whiteSpace=wrap;html=1;strokeWidth=3;targetShapes=umlLifeline;" parent="1" vertex="1">
          <mxGeometry x="545" y="780" width="30" height="30" as="geometry" />
        </mxCell>
        <mxCell id="WEF_ZwdhUINKWZ9d70AN-4" value="Home Page" style="shape=umlLifeline;perimeter=lifelinePerimeter;whiteSpace=wrap;html=1;container=0;dropTarget=0;collapsible=0;recursiveResize=0;outlineConnect=0;portConstraint=eastwest;newEdgeStyle={&quot;edgeStyle&quot;:&quot;elbowEdgeStyle&quot;,&quot;elbow&quot;:&quot;vertical&quot;,&quot;curved&quot;:0,&quot;rounded&quot;:0};fontSize=20;fillColor=#76608a;fontColor=#ffffff;strokeColor=#432D57;" vertex="1" parent="1">
          <mxGeometry x="-85" y="40" width="100" height="760" as="geometry" />
        </mxCell>
        <mxCell id="WEF_ZwdhUINKWZ9d70AN-5" value="" style="html=1;points=[[0,0,0,0,5],[0,1,0,0,-5],[1,0,0,0,5],[1,1,0,0,-5]];perimeter=orthogonalPerimeter;outlineConnect=0;targetShapes=umlLifeline;portConstraint=eastwest;newEdgeStyle={&quot;curved&quot;:0,&quot;rounded&quot;:0};fillColor=#f0a30a;fontColor=#000000;strokeColor=#BD7000;" vertex="1" parent="WEF_ZwdhUINKWZ9d70AN-4">
          <mxGeometry x="45" y="70" width="10" height="640" as="geometry" />
        </mxCell>
      </root>
    </mxGraphModel>
  </diagram>
</mxfile>
